<svg width="18" height="18" viewBox="0 1 22 18" fill="none" xmlns="http://www.w3.org/2000/svg">
<path d="M17.7123 8.30069L11.2119 1.80011C11.0263 1.61455 10.779 1.5127 10.5153 1.5127C10.2513 1.5127 10.0041 1.61469 9.81855 1.80011L9.22836 2.39044C9.04295 2.57571 8.9408 2.82317 8.9408 3.08702C8.9408 3.35073 9.04295 3.60653 9.22836 3.7918L13.0206 7.5924H0.972431C0.429216 7.5924 0 8.01767 0 8.56103V9.39561C0 9.93897 0.429216 10.4071 0.972431 10.4071H13.0636L9.22851 14.2289C9.04309 14.4145 8.94095 14.6552 8.94095 14.9191C8.94095 15.1826 9.04309 15.4269 9.22851 15.6123L9.8187 16.2007C10.0043 16.3863 10.2514 16.4874 10.5154 16.4874C10.7791 16.4874 11.0264 16.385 11.212 16.1994L17.7124 9.69897C17.8984 9.51282 18.0007 9.26434 18 9.00019C18.0006 8.73517 17.8984 8.48654 17.7123 8.30069Z" fill="#FBFBFB"/>
</svg>
