<svg width="25" height="44" viewBox="0 0 25 44" fill="none" xmlns="http://www.w3.org/2000/svg">
<path d="M0.678442 23.4691L19.5838 42.3741C20.021 42.8117 20.6047 43.0527 21.2271 43.0527C21.8495 43.0527 22.4332 42.8117 22.8704 42.3741L24.2627 40.9822C25.1686 40.0752 25.1686 38.6011 24.2627 37.6955L8.38743 21.8202L24.2803 5.92734C24.7176 5.48974 24.959 4.90639 24.959 4.28435C24.959 3.66162 24.7176 3.07827 24.2803 2.64032L22.8881 1.24876C22.4505 0.811161 21.8671 0.570084 21.2447 0.570084C20.6223 0.570084 20.0386 0.811161 19.6014 1.24876L0.678442 20.171C0.240149 20.61 -0.000583391 21.1961 0.000798202 21.8192C-0.000583282 22.4447 0.240149 23.0304 0.678442 23.4691Z" fill="white"/>
</svg>
