<svg width="44" height="74" viewBox="0 0 44 74" fill="none" xmlns="http://www.w3.org/2000/svg">
<path d="M1.18097 39.8854L34.1101 72.814C34.8717 73.5762 35.8884 73.9961 36.9725 73.9961C38.0566 73.9961 39.0732 73.5762 39.8348 72.814L42.2599 70.3896C43.8378 68.8098 43.8378 66.2422 42.2599 64.6649L14.6084 37.0134L42.2905 9.33134C43.0521 8.56912 43.4727 7.55304 43.4727 6.46958C43.4727 5.38491 43.0521 4.36883 42.2905 3.60601L39.8655 1.18221C39.1033 0.420001 38.0872 9.4322e-05 37.0032 9.44168e-05C35.9191 9.45116e-05 34.9024 0.420001 34.1408 1.18221L1.18097 34.1409C0.417556 34.9055 -0.00174996 35.9264 0.000656485 37.0116C-0.00174977 38.1011 0.417556 39.1214 1.18097 39.8854Z" fill="white"/>
</svg>
