<?xml version="1.0" encoding="utf-8"?>
<!-- Generator: Adobe Illustrator 16.0.0, SVG Export Plug-In . SVG Version: 6.00 Build 0)  -->
<!DOCTYPE svg PUBLIC "-//W3C//DTD SVG 1.1//EN" "http://www.w3.org/Graphics/SVG/1.1/DTD/svg11.dtd">
<svg version="1.1" id="insta" xmlns="http://www.w3.org/2000/svg" xmlns:xlink="http://www.w3.org/1999/xlink" x="0px" y="0px"
	 width="21px" height="20px" viewBox="0 0 21 20" enable-background="new 0 0 21 20" xml:space="preserve">
<path fill="#FFFFFF" d="M10.447,1.72c2.553,0,2.855,0.009,3.863,0.056c0.932,0.042,1.438,0.198,1.775,0.328
	c0.445,0.173,0.765,0.38,1.099,0.714c0.335,0.334,0.542,0.653,0.716,1.098c0.131,0.336,0.286,0.842,0.329,1.772
	c0.046,1.007,0.056,1.309,0.056,3.857c0,2.549-0.01,2.85-0.056,3.857c-0.043,0.931-0.198,1.437-0.329,1.772
	c-0.174,0.445-0.381,0.764-0.716,1.098c-0.334,0.334-0.653,0.541-1.099,0.714c-0.338,0.131-0.844,0.286-1.775,0.329
	c-1.008,0.045-1.311,0.055-3.863,0.055c-2.553,0-2.855-0.01-3.863-0.055c-0.932-0.043-1.438-0.198-1.775-0.329
	c-0.446-0.173-0.765-0.38-1.099-0.714s-0.542-0.652-0.715-1.098c-0.131-0.336-0.287-0.842-0.329-1.772
	c-0.046-1.007-0.056-1.308-0.056-3.857c0-2.548,0.01-2.85,0.056-3.857c0.042-0.93,0.198-1.436,0.329-1.772
	c0.173-0.445,0.381-0.763,0.715-1.098c0.334-0.334,0.653-0.541,1.099-0.714c0.337-0.13,0.843-0.286,1.775-0.328
	C7.592,1.729,7.895,1.72,10.447,1.72z M10.447,0C7.851,0,7.525,0.011,6.505,0.058C5.488,0.104,4.793,0.265,4.185,0.501
	c-0.628,0.244-1.162,0.57-1.693,1.101C1.96,2.133,1.633,2.666,1.389,3.292C1.152,3.9,0.991,4.594,0.944,5.609
	C0.898,6.627,0.887,6.952,0.887,9.544s0.011,2.918,0.058,3.936c0.046,1.016,0.208,1.709,0.445,2.316
	c0.244,0.627,0.571,1.16,1.102,1.69c0.532,0.53,1.065,0.856,1.693,1.102c0.608,0.235,1.303,0.397,2.321,0.442
	c1.02,0.047,1.345,0.058,3.942,0.058c2.596,0,2.922-0.011,3.941-0.058c1.018-0.045,1.713-0.207,2.32-0.442
	c0.629-0.245,1.162-0.571,1.694-1.102c0.531-0.53,0.858-1.063,1.103-1.69c0.236-0.607,0.398-1.301,0.443-2.316
	c0.047-1.018,0.059-1.344,0.059-3.936s-0.012-2.917-0.059-3.935c-0.045-1.016-0.207-1.709-0.443-2.317
	c-0.244-0.627-0.571-1.16-1.103-1.69c-0.532-0.531-1.065-0.857-1.694-1.101c-0.607-0.236-1.303-0.397-2.32-0.443
	C13.369,0.011,13.043,0,10.447,0z M10.447,4.643c-2.711,0-4.909,2.195-4.909,4.901c0,2.708,2.198,4.901,4.909,4.901
	c2.711,0,4.909-2.193,4.909-4.901C15.356,6.838,13.158,4.643,10.447,4.643z M10.447,12.727c-1.76,0-3.187-1.425-3.187-3.182
	c0-1.757,1.427-3.181,3.187-3.181c1.76,0,3.187,1.424,3.187,3.181C13.634,11.302,12.207,12.727,10.447,12.727z M16.698,4.45
	c0,0.632-0.514,1.146-1.147,1.146c-0.635,0-1.147-0.513-1.147-1.146s0.513-1.146,1.147-1.146C16.185,3.304,16.698,3.817,16.698,4.45
	z"/>
</svg>
