<svg xmlns="http://www.w3.org/2000/svg" width="23" height="23"><path fill="#FBFBFB" d="M16.036 16.148a2.47 2.47 0 00-2.471 2.471 2.47 2.47 0 002.471 2.471 2.47 2.47 0 002.471-2.471c-.024-1.354-1.116-2.471-2.471-2.471zm4.348-11.783c-.048 0-.119-.024-.19-.024H5.227L4.989 2.75A2.127 2.127 0 002.875.92H.95a.953.953 0 00-.95.95c0 .523.428.95.95.95h1.924c.119 0 .214.095.238.214L4.585 13.06a2.606 2.606 0 002.566 2.209h9.882a2.64 2.64 0 002.566-2.091l1.544-7.721a.938.938 0 00-.759-1.092zM9.978 18.5a2.456 2.456 0 00-2.447-2.352 2.485 2.485 0 00-2.376 2.565 2.436 2.436 0 002.423 2.353h.048c1.354-.072 2.423-1.212 2.352-2.566z"/></svg>