<svg width="20" height="20" viewBox="0 0 20 20" fill="none" xmlns="http://www.w3.org/2000/svg">
<path d="M9.88483 0C4.63313 0 0.375488 4.25738 0.375488 9.50939C0.375488 14.7615 4.63318 19.0187 9.88483 19.0187C15.1369 19.0187 19.3942 14.7614 19.3942 9.50939C19.3943 4.25738 15.1369 0 9.88483 0ZM14.2594 13.7413C14.0692 14.026 13.7363 14.1211 13.451 13.9309C11.2165 12.5524 8.41088 12.2671 5.08262 13.028C4.74972 13.1231 4.46473 12.8853 4.36961 12.5999C4.2745 12.2671 4.51229 11.9817 4.79764 11.8866C8.41093 11.0781 11.5494 11.411 14.021 12.9329C14.3545 13.0755 14.4014 13.456 14.2594 13.7413ZM15.4008 11.1257C15.1624 11.4586 14.735 11.6012 14.4014 11.3634C11.8347 9.79474 7.93566 9.31916 4.94026 10.2703C4.55979 10.3647 4.13177 10.1752 4.03665 9.79474C3.94154 9.41428 4.13177 8.9863 4.51224 8.89119C7.98291 7.84558 12.262 8.36804 15.2105 10.1752C15.4952 10.3179 15.6379 10.7928 15.4008 11.1257ZM15.4952 8.46316C12.4523 6.65667 7.36496 6.46644 4.46468 7.36937C3.98909 7.51272 3.51351 7.22737 3.3712 6.79934C3.22816 6.32376 3.51351 5.84823 3.94153 5.70555C7.3174 4.70688 12.8803 4.89711 16.3988 6.98958C16.8268 7.22737 16.9695 7.7974 16.7317 8.22537C16.4939 8.55828 15.9232 8.70095 15.4952 8.46316Z" fill="white"/>
</svg>
