<svg width="25" height="44" viewBox="0 0 25 44" fill="none" xmlns="http://www.w3.org/2000/svg">
<path d="M24.3216 20.1537L5.41624 1.24875C4.97898 0.811147 4.39528 0.570068 3.7729 0.570068C3.15051 0.570068 2.56681 0.811147 2.12956 1.24875L0.737311 2.64065C-0.168633 3.54763 -0.168633 5.02173 0.737311 5.92733L16.6126 21.8026L0.719696 37.6955C0.28244 38.1331 0.0410156 38.7164 0.0410156 39.3385C0.0410156 39.9612 0.28244 40.5445 0.719696 40.9825L2.11194 42.374C2.54954 42.8116 3.1329 43.0527 3.75528 43.0527C4.37767 43.0527 4.96137 42.8116 5.39862 42.374L24.3216 23.4518C24.7598 23.0128 25.0006 22.4267 24.9992 21.8036C25.0006 21.1781 24.7598 20.5924 24.3216 20.1537Z" fill="white"/>
</svg>
