<svg width="102%" height="100%" viewBox="0 0 126 28" fill="none" xmlns="http://www.w3.org/2000/svg">
<path d="M94.2952 0H84.684V15.6296C84.684 16.777 84.4339 17.6678 83.935 18.302C83.4353 18.9232 82.7268 19.2332 81.8091 19.2332C80.8779 19.2332 80.1557 18.916 79.6428 18.2818C79.1295 17.6339 78.8736 16.7503 78.8736 15.6296V0H69.6781H69.1355H59.9401V15.6296C59.9401 16.777 59.6903 17.6678 59.1909 18.302C58.6914 18.9232 57.9827 19.2332 57.0652 19.2332C56.134 19.2332 55.4116 18.916 54.899 18.2818C54.386 17.6339 54.1297 16.7503 54.1297 15.6296V0H44.3915V5.00111C43.9591 4.07406 43.3844 3.25277 42.6483 2.55092C41.7842 1.72779 40.7484 1.09679 39.5405 0.657907C38.3323 0.21936 36.9998 0 35.542 0H21.9775V5.82424C21.8116 4.98139 21.5284 4.2017 21.0959 3.50253C20.3937 2.36883 19.3749 1.50509 18.0387 0.911177C16.7159 0.303727 15.1368 0 13.3012 0H0V27.3316H14.4351C16.2976 27.3316 17.8935 27.031 19.2232 26.4303C20.3908 25.9032 21.299 25.154 21.9776 24.2105V27.3316H31.7157V18.5045L36.1697 27.3316H47.5679L40.482 16.4192C42.1688 15.7446 43.3904 14.8436 44.1464 13.7164C44.2398 13.5772 44.3098 13.4167 44.3913 13.2668V16.4192C44.3913 19.2673 44.8298 21.4134 45.7071 22.8574C46.7195 24.5312 48.1872 25.8066 50.1104 26.6837C52.0339 27.5608 54.3519 27.9997 57.0647 27.9997C58.8059 27.9997 60.385 27.8174 61.8022 27.453C63.2194 27.0756 64.4543 26.5283 65.507 25.8133C66.5729 25.0982 67.4271 24.2243 68.0685 23.1912C68.7092 22.1592 69.1238 20.995 69.3131 19.6992C69.325 19.6228 69.3355 19.5537 69.3459 19.4798C69.5562 20.8585 69.9224 21.9885 70.4508 22.8577C71.4631 24.5316 72.9312 25.8069 74.8538 26.684C76.7778 27.5611 79.0956 28 81.8084 28C83.5496 28 85.1287 27.8177 86.5457 27.4534C87.9629 27.076 89.1979 26.5287 90.2507 25.8136C91.3166 25.0986 92.1708 24.2247 92.8122 23.1915C93.4529 22.1596 93.8676 20.9953 94.0568 19.6995C94.2999 18.1204 94.4214 17.0271 94.4214 16.4197V8.86817H99.6801V27.3322H109.479V8.86817H114.783V0.000672993H94.422H94.2952V0ZM9.41431 6.64052C10.4399 6.64052 11.1384 6.66441 11.5096 6.71136C11.8805 6.75864 12.1879 6.87691 12.4308 7.0657C12.7954 7.34904 12.9775 7.85525 12.9775 8.58416C12.9775 9.21867 12.7752 9.66407 12.3702 9.92035C12.2081 10.0418 11.9515 10.1397 11.6009 10.214C11.2499 10.2884 10.5209 10.3253 9.41431 10.3253V6.64052V6.64052ZM13.3824 20.124C12.937 20.448 12.1944 20.6099 11.1555 20.6099H9.41431V16.3382H11.0744C13.0314 16.3382 14.0101 17.0604 14.0101 18.5045C14.0101 19.2606 13.8008 19.8001 13.3824 20.124ZM20.9746 14.597C20.1646 14.0437 19.0849 13.5983 17.7352 13.2608C19.3278 12.721 20.4615 12.0194 21.1364 11.1553C21.5466 10.622 21.8166 9.9424 21.9776 9.14951V15.4739C21.6889 15.1495 21.3561 14.856 20.9746 14.597ZM35.4205 10.973C35.272 11.2834 34.9955 11.5334 34.5906 11.722C33.9966 11.9788 33.0988 12.1067 31.898 12.1067V7.4705C33.2746 7.4705 34.2327 7.62604 34.7728 7.93611C35.353 8.27375 35.6432 8.90142 35.6432 9.81911C35.6432 10.2782 35.5689 10.663 35.4205 10.973Z" fill="white"/>
<path d="M125.194 21.1762C124.783 20.5198 124.202 20.0052 123.451 19.633C122.7 19.2606 121.856 19.0739 120.922 19.0739C119.432 19.0739 118.198 19.4813 117.219 20.2953C116.241 21.1104 115.752 22.1487 115.752 23.411C115.752 24.3077 115.992 25.0778 116.472 25.7215C116.952 26.3654 117.576 26.8548 118.347 27.189C119.117 27.5235 119.925 27.6913 120.771 27.6913C121.629 27.6913 122.444 27.5208 123.214 27.1799C123.997 26.8521 124.626 26.3654 125.098 25.7215C125.573 25.0777 125.809 24.3077 125.809 23.411C125.809 22.5775 125.604 21.8324 125.194 21.1762Z" fill="white"/>
<path d="M125.106 0.0209351H116.451V17.5209H125.106V0.0209351Z" fill="white"/>
</svg>
