<?xml version="1.0" encoding="utf-8"?>
<!-- Generator: Adobe Illustrator 16.0.0, SVG Export Plug-In . SVG Version: 6.00 Build 0)  -->
<!DOCTYPE svg PUBLIC "-//W3C//DTD SVG 1.1//EN" "http://www.w3.org/Graphics/SVG/1.1/DTD/svg11.dtd">
<svg version="1.1" id="cart" xmlns="http://www.w3.org/2000/svg" xmlns:xlink="http://www.w3.org/1999/xlink" x="0px" y="0px"
	 width="23px" height="23px" viewBox="0 0 23 23" enable-background="new 0 0 23 23" xml:space="preserve">
<path fill="#FBFBFB" d="M16.036,16.148c-1.354,0-2.471,1.093-2.471,2.471c0,1.354,1.093,2.471,2.471,2.471
	c1.354,0,2.471-1.093,2.471-2.471C18.483,17.265,17.391,16.148,16.036,16.148z M20.384,4.365c-0.048,0-0.119-0.024-0.19-0.024H5.227
	L4.989,2.75C4.847,1.704,3.944,0.92,2.875,0.92H0.95C0.428,0.92,0,1.348,0,1.87c0,0.523,0.428,0.95,0.95,0.95h1.924
	c0.119,0,0.214,0.095,0.238,0.214l1.473,10.026c0.19,1.258,1.283,2.209,2.566,2.209h9.882c1.236,0,2.305-0.879,2.566-2.091
	l1.544-7.721C21.238,4.958,20.906,4.46,20.384,4.365z M9.978,18.5c-0.047-1.307-1.14-2.352-2.447-2.352
	c-1.378,0.071-2.423,1.211-2.376,2.565c0.048,1.307,1.117,2.353,2.423,2.353h0.048C8.98,20.994,10.049,19.854,9.978,18.5z"/>
</svg>
